<svg xmlns="http://www.w3.org/2000/svg" viewBox="0 0 13 13" width="13" height="13">
	<style>
		tspan { white-space:pre }
		.shp0 { fill: #3a3a3a } 
	</style>
	<path id="Arrows" class="shp0" d="M12.87 2.1L9.9 0.04C9.74 -0.07 9.52 0.05 9.52 0.25L9.52 1.36L1.05 1.36C0.55 1.36 0.13 1.79 0.13 2.31L0.13 7.35L1.97 7.35L1.97 3.26L9.52 3.26L9.52 4.38C9.52 4.58 9.73 4.7 9.9 4.59L12.87 2.52C13.01 2.42 13.01 2.2 12.87 2.1ZM10.98 9.73L3.44 9.73L3.44 8.62C3.44 8.42 3.22 8.3 3.06 8.41L0.08 10.47C-0.06 10.57 -0.06 10.79 0.08 10.89L3.05 12.96C3.22 13.07 3.43 12.95 3.43 12.75L3.43 11.63L11.9 11.63C12.4 11.63 12.82 11.21 12.82 10.68L12.82 5.65L10.98 5.65L10.98 9.73L10.98 9.73L10.98 9.73Z" />
</svg>