<svg xmlns="http://www.w3.org/2000/svg" viewBox="0 0 17 22" width="17" height="22">
	<style>
		tspan { white-space:pre }
		.shp0 { fill: #3a3a3a } 
	</style>
	<path id="Cart" class="shp0" d="M17 19.02L15.78 4.83C15.75 4.52 15.5 4.28 15.2 4.28L12.7 4.28C12.66 1.91 10.79 0 8.5 0C6.21 0 4.34 1.91 4.3 4.28L1.8 4.28C1.5 4.28 1.25 4.52 1.22 4.83L0 19.02C0 19.03 0 19.05 0 19.07C0 20.69 1.43 22 3.19 22L13.81 22C15.57 22 17 20.69 17 19.07C17 19.05 17 19.03 17 19.02ZM8.5 1.21C10.15 1.21 11.49 2.58 11.52 4.28L5.48 4.28C5.51 2.58 6.85 1.21 8.5 1.21ZM13.81 20.78L3.19 20.78C2.08 20.78 1.19 20.03 1.17 19.1L2.34 5.5L4.3 5.5L4.3 7.34C4.3 7.68 4.56 7.95 4.89 7.95C5.21 7.95 5.47 7.68 5.47 7.34L5.47 5.5L11.52 5.5L11.52 7.34C11.52 7.68 11.78 7.95 12.11 7.95C12.43 7.95 12.7 7.68 12.7 7.34L12.7 5.5L14.66 5.5L15.83 19.1C15.81 20.03 14.91 20.78 13.81 20.78Z" />
</svg>