<svg xmlns="http://www.w3.org/2000/svg" viewBox="0 0 14 10" width="14" height="10">
	<style>
		tspan { white-space:pre }
		.shp0 { fill: #3a3a3a } 
	</style>
	<path id="Eye" class="shp0" d="M6.86 2.93C5.81 2.93 4.95 3.85 4.95 5C4.95 6.14 5.8 7.07 6.86 7.07C7.92 7.07 8.78 6.14 8.78 5C8.78 3.86 7.92 2.93 6.86 2.93L6.86 2.93ZM6.86 8.27C5.16 8.27 3.78 6.81 3.78 5C3.78 3.19 5.16 1.72 6.86 1.72C8.56 1.72 9.95 3.19 9.95 5C9.95 6.81 8.56 8.27 6.86 8.27L6.86 8.27ZM13.91 4.68C12.09 1.66 9.62 0 6.99 0L6.99 0C4.35 0 1.89 1.66 0.07 4.68C-0.05 4.87 -0.05 5.12 0.07 5.32C1.89 8.34 4.35 10 6.99 10C9.62 10 12.08 8.34 13.91 5.32C14.03 5.12 14.03 4.87 13.91 4.68L13.91 4.68Z" />
</svg>