<svg xmlns="http://www.w3.org/2000/svg" viewBox="0 0 8 15" width="8" height="15">
	<style>
		tspan { white-space:pre }
		.shp0 { fill: #ffffff } 
	</style>
	<path id="Facebook" class="shp0" d="M7.7 0L5.78 0C3.62 0 2.23 1.45 2.23 3.69L2.23 5.39L0.3 5.39C0.13 5.39 0 5.53 0 5.7L0 8.17C0 8.33 0.14 8.47 0.3 8.47L2.23 8.47L2.23 14.69C2.23 14.86 2.37 15 2.53 15L5.05 15C5.22 15 5.35 14.86 5.35 14.69L5.35 8.47L7.61 8.47C7.77 8.47 7.91 8.33 7.91 8.17L7.91 5.7C7.91 5.62 7.88 5.54 7.82 5.48C7.76 5.43 7.69 5.39 7.61 5.39L5.35 5.39L5.35 3.95C5.35 3.26 5.51 2.9 6.41 2.9L7.7 2.9C7.86 2.9 8 2.77 8 2.6L8 0.31C8 0.14 7.86 0 7.7 0Z" />
</svg>