<svg xmlns="http://www.w3.org/2000/svg" viewBox="0 0 15 15" width="15" height="15">
	<style>
		tspan { white-space:pre }
		.shp0 { fill: #ffffff } 
	</style>
	<path id="Phone" class="shp0" d="M14.99 11.84C15.02 12.08 14.95 12.29 14.77 12.47L12.66 14.57C12.56 14.68 12.44 14.77 12.28 14.84C12.13 14.91 11.98 14.96 11.83 14.98C11.82 14.98 11.79 14.99 11.74 14.99C11.68 15 11.62 15 11.53 15C11.33 15 11 14.96 10.55 14.9C10.1 14.83 9.55 14.66 8.9 14.39C8.25 14.12 7.51 13.71 6.69 13.17C5.86 12.63 4.98 11.89 4.05 10.95C3.31 10.22 2.7 9.52 2.21 8.85C1.72 8.18 1.33 7.57 1.03 7C0.74 6.43 0.52 5.92 0.37 5.46C0.22 5 0.12 4.6 0.07 4.27C0.01 3.93 -0.01 3.67 0 3.48C0.01 3.29 0.02 3.18 0.02 3.16C0.04 3.01 0.09 2.86 0.16 2.71C0.24 2.56 0.33 2.43 0.43 2.34L2.54 0.22C2.69 0.07 2.86 0 3.05 0C3.19 0 3.31 0.04 3.42 0.12C3.52 0.2 3.61 0.3 3.69 0.41L5.39 3.64C5.48 3.81 5.51 3.99 5.46 4.19C5.42 4.4 5.33 4.56 5.19 4.7L4.42 5.48C4.4 5.5 4.38 5.54 4.36 5.58C4.35 5.63 4.34 5.67 4.34 5.7C4.38 5.93 4.47 6.18 4.62 6.47C4.75 6.72 4.95 7.03 5.21 7.4C5.48 7.76 5.85 8.18 6.34 8.66C6.81 9.15 7.24 9.53 7.61 9.8C7.98 10.07 8.29 10.26 8.54 10.39C8.79 10.52 8.98 10.59 9.11 10.62L9.31 10.66C9.33 10.66 9.36 10.65 9.41 10.64C9.46 10.62 9.49 10.6 9.51 10.58L10.42 9.66C10.61 9.49 10.83 9.41 11.09 9.41C11.27 9.41 11.41 9.44 11.51 9.5L11.53 9.5L14.6 11.31C14.82 11.45 14.95 11.63 14.99 11.84Z" />
</svg>