<svg xmlns="http://www.w3.org/2000/svg" viewBox="0 0 17 12" width="17" height="12">
	<style>
		tspan { white-space:pre }
		.shp0 { fill: #ffffff } 
	</style>
	<path id="Google" class="shp0" d="M10.6 4.42L5.1 4.42L5.1 7.26L7.87 7.26C7.5 8.44 6.59 9.16 5.44 9.16C3.9 9.16 2.55 7.68 2.55 6C2.55 4.32 3.9 2.84 5.44 2.84C6.18 2.84 6.8 3.1 7.24 3.6L7.44 3.82L9.34 1.71L9.13 1.49C8.24 0.51 6.96 0 5.44 0C2.39 0 0 2.63 0 6C0 9.36 2.39 12 5.44 12C8.25 12 10.25 10.16 10.66 7.2C10.71 6.82 10.74 6.41 10.74 6C10.74 5.54 10.7 5.05 10.64 4.68L10.6 4.42ZM15.3 4.42L15.3 2.53L13.32 2.53L13.32 4.42L11.62 4.42L11.62 6.63L13.32 6.63L13.32 8.53L15.3 8.53L15.3 6.63L17 6.63L17 4.42L15.3 4.42Z" />
</svg>