<svg xmlns="http://www.w3.org/2000/svg" viewBox="0 0 14 14" width="14" height="14">
	<style>
		tspan { white-space:pre }
		.shp0 { fill: #ffffff } 
	</style>
	<path id="Instagram" class="shp0" d="M10.14 0L3.86 0C1.73 0 0 1.73 0 3.86L0 10.14C0 12.27 1.73 14 3.86 14L10.14 14C12.27 14 14 12.27 14 10.14L14 3.86C14 1.73 12.27 0 10.14 0ZM12.76 10.14C12.76 11.58 11.58 12.76 10.14 12.76L3.86 12.76C2.42 12.76 1.24 11.58 1.24 10.14L1.24 3.86C1.24 2.42 2.42 1.24 3.86 1.24L10.14 1.24C11.58 1.24 12.76 2.42 12.76 3.86L12.76 10.14L12.76 10.14ZM7 3.39C5.01 3.39 3.39 5.01 3.39 7C3.39 8.99 5.01 10.61 7 10.61C8.99 10.61 10.61 8.99 10.61 7C10.61 5.01 8.99 3.39 7 3.39ZM7 9.37C5.7 9.37 4.63 8.3 4.63 7C4.63 5.7 5.7 4.63 7 4.63C8.3 4.63 9.37 5.7 9.37 7C9.37 8.3 8.3 9.37 7 9.37ZM10.76 2.34C10.52 2.34 10.28 2.44 10.12 2.61C9.95 2.77 9.85 3.01 9.85 3.25C9.85 3.49 9.95 3.72 10.12 3.89C10.28 4.06 10.52 4.16 10.76 4.16C11 4.16 11.23 4.06 11.4 3.89C11.57 3.72 11.67 3.49 11.67 3.25C11.67 3.01 11.57 2.77 11.4 2.61C11.23 2.44 11 2.34 10.76 2.34Z" />
</svg>