<svg version="1.2" baseProfile="tiny-ps" xmlns="http://www.w3.org/2000/svg" viewBox="0 0 38 37" width="38" height="37">
	<title>List</title>
	<style>
		tspan { white-space:pre }
		.shp0 { fill: #ff0054 } 
		.shp1 { fill: #ffffff } 
	</style>
	<g id="List">
		<path id="Rectangle" class="shp0" d="M0 0L38 0L38 37L0 37L0 0Z" />
		<path id="Rectangle" class="shp1" d="M11 11L14 11L14 14L11 14L11 11Z" />
		<path id="Rectangle" class="shp1" d="M11 17L14 17L14 20L11 20L11 17Z" />
		<path id="Rectangle" class="shp1" d="M11 23L14 23L14 26L11 26L11 23Z" />
		<path id="Rectangle" class="shp1" d="M17 11L28 11L28 14L17 14L17 11Z" />
		<path id="Rectangle" class="shp1" d="M17 17L28 17L28 20L17 20L17 17Z" />
		<path id="Rectangle" class="shp1" d="M17 23L28 23L28 26L17 26L17 23Z" />
	</g>
</svg>