<svg xmlns="http://www.w3.org/2000/svg" viewBox="0 0 16 13" width="16" height="13">
	<style>
		tspan { white-space:pre }
		.shp0 { fill: #ffffff } 
	</style>
	<path id="Mail" class="shp0" d="M1.54 4.01C1.74 4.15 2.35 4.59 3.37 5.32C4.38 6.05 5.16 6.61 5.71 7.01C5.76 7.05 5.89 7.14 6.08 7.29C6.28 7.43 6.44 7.55 6.57 7.64C6.69 7.73 6.85 7.83 7.03 7.94C7.21 8.05 7.38 8.13 7.54 8.19C7.71 8.24 7.85 8.27 7.99 8.27L8 8.27L8.01 8.27C8.15 8.27 8.29 8.24 8.46 8.19C8.62 8.13 8.79 8.05 8.97 7.94C9.15 7.83 9.31 7.73 9.43 7.64C9.56 7.55 9.72 7.43 9.92 7.29C10.11 7.14 10.24 7.05 10.29 7.01C10.84 6.61 12.24 5.61 14.47 4.01C14.91 3.69 15.27 3.31 15.56 2.87C15.85 2.43 16 1.96 16 1.48C16 1.07 15.86 0.72 15.58 0.43C15.29 0.14 14.96 0 14.57 0L1.43 0C0.97 0 0.62 0.16 0.37 0.48C0.12 0.8 0 1.2 0 1.68C0 2.07 0.16 2.49 0.49 2.94C0.82 3.39 1.17 3.75 1.54 4.01ZM15.11 4.99C13.15 6.36 11.67 7.42 10.66 8.18C10.32 8.44 10.05 8.64 9.83 8.78C9.62 8.93 9.34 9.08 8.99 9.23C8.64 9.38 8.31 9.45 8.01 9.45L8 9.45L7.99 9.45C7.69 9.45 7.36 9.38 7.01 9.23C6.66 9.08 6.38 8.93 6.17 8.78C5.95 8.64 5.68 8.44 5.34 8.18C4.54 7.57 3.06 6.51 0.9 4.99C0.56 4.76 0.26 4.49 0 4.19L0 11.52C0 11.93 0.14 12.28 0.42 12.57C0.7 12.86 1.04 13 1.43 13L14.57 13C14.96 13 15.3 12.86 15.58 12.57C15.86 12.28 16 11.93 16 11.52L16 4.19C15.74 4.49 15.45 4.75 15.11 4.99Z" />
</svg>