<svg xmlns="http://www.w3.org/2000/svg" viewBox="0 0 12 15" width="12" height="15">
	<style>
		tspan { white-space:pre }
		.shp0 { fill: #ffffff } 
	</style>
	<path id="Pinterest" class="shp0" d="M10.44 1.54C9.39 0.55 7.94 0 6.35 0C3.92 0 2.43 0.98 1.6 1.8C0.58 2.81 0 4.15 0 5.48C0 7.15 0.71 8.43 1.9 8.91C1.98 8.94 2.06 8.96 2.14 8.96C2.39 8.96 2.59 8.8 2.66 8.54C2.7 8.39 2.79 8.02 2.83 7.86C2.92 7.55 2.85 7.4 2.66 7.18C2.32 6.78 2.16 6.31 2.16 5.69C2.16 3.86 3.54 1.92 6.11 1.92C8.15 1.92 9.42 3.05 9.42 4.89C9.42 6.04 9.17 7.12 8.7 7.9C8.38 8.45 7.82 9.11 6.96 9.11C6.58 9.11 6.25 8.95 6.04 8.69C5.84 8.44 5.77 8.12 5.85 7.79C5.94 7.41 6.07 7.01 6.19 6.63C6.4 5.94 6.61 5.28 6.61 4.76C6.61 3.86 6.05 3.25 5.21 3.25C4.15 3.25 3.32 4.31 3.32 5.67C3.32 6.33 3.5 6.83 3.58 7.02C3.45 7.57 2.65 10.89 2.5 11.51C2.41 11.88 1.89 14.75 2.76 14.98C3.74 15.24 4.61 12.44 4.7 12.12C4.77 11.86 5.02 10.89 5.18 10.29C5.65 10.74 6.41 11.04 7.15 11.04C8.54 11.04 9.79 10.42 10.67 9.3C11.53 8.22 12 6.71 12 5.05C12 3.75 11.43 2.47 10.44 1.54Z" />
</svg>