<svg xmlns="http://www.w3.org/2000/svg" viewBox="0 0 12 16" width="12" height="16">
	<style>
		tspan { white-space:pre }
		.shp0 { fill: #ffffff } 
	</style>
	<path id="Point копия" class="shp0" d="M5.79 0C2.8 0.11 0.32 2.59 0.03 5.76C-0.03 6.39 0 7.01 0.11 7.59L0.11 7.59C0.11 7.59 0.12 7.66 0.15 7.79C0.24 8.23 0.38 8.66 0.55 9.06C1.15 10.58 2.54 13.11 5.67 15.87C5.86 16.04 6.14 16.04 6.33 15.87C9.45 13.12 10.84 10.58 11.45 9.06C11.62 8.66 11.76 8.23 11.85 7.79C11.88 7.66 11.89 7.59 11.89 7.59L11.89 7.59C11.96 7.2 12 6.79 12 6.38C12 2.78 9.2 -0.13 5.79 0ZM6 9.56C4.39 9.56 3.08 8.17 3.08 6.46C3.08 4.74 4.39 3.36 6 3.36C7.61 3.36 8.91 4.74 8.91 6.46C8.91 8.17 7.61 9.56 6 9.56Z" />
</svg>