<svg xmlns="http://www.w3.org/2000/svg" viewBox="0 0 16 16" width="16" height="16">
	<style>
		tspan { white-space:pre }
		.shp0 { fill: #3a3a3a } 
	</style>
	<path id="Search" class="shp0" d="M15.75 14.57L11.81 10.61C12.82 9.45 13.38 7.98 13.38 6.46C13.38 2.9 10.38 0 6.69 0C3 0 0 2.9 0 6.46C0 10.02 3 12.92 6.69 12.92C8.07 12.92 9.39 12.52 10.52 11.75L14.49 15.74C14.66 15.91 14.88 16 15.12 16C15.35 16 15.56 15.92 15.73 15.76C16.07 15.44 16.08 14.91 15.75 14.57ZM6.69 1.68C9.41 1.68 11.63 3.83 11.63 6.46C11.63 9.09 9.41 11.23 6.69 11.23C3.96 11.23 1.74 9.09 1.74 6.46C1.74 3.83 3.96 1.68 6.69 1.68Z" />
</svg>