<svg xmlns="http://www.w3.org/2000/svg" viewBox="0 0 38 26" width="38" height="26">
	<style>
		tspan { white-space:pre }
		.shp0 { fill: #3a3a3a } 
	</style>
	<path id="Truck" class="shp0" d="M37.72 12.54L31.24 5.1C31.03 4.86 31.32 5 31 5L25 5C25 5 25 1.78 25 0C25 0 9.03 0 0 0L0 23C1.3 23 3.24 22.88 3.24 22.88C3.73 24.68 5.36 26 7.3 26C9.23 26 10.87 24.68 11.36 22.88L26.21 22.88L26.21 22.88C26.69 24.68 28.33 26 30.26 26C32.2 26 33.83 24.68 34.32 22.88C34.32 22.88 36.95 23 38 23L38 13.28C38 13.01 37.9 12.75 37.72 12.54ZM7.3 23.76C6.2 23.76 5.31 22.86 5.31 21.76C5.31 20.66 6.2 19.77 7.3 19.77C8.39 19.77 9.28 20.66 9.28 21.76C9.28 22.86 8.39 23.76 7.3 23.76ZM11.36 20.64C10.87 18.85 9.23 17.53 7.3 17.53C5.36 17.53 3.73 18.85 3.24 20.64L2.03 20.64L2 2L23 2L23 21L11.36 20.64ZM30.26 23.76C29.17 23.76 28.28 22.86 28.28 21.76C28.28 20.66 29.17 19.77 30.26 19.77C31.36 19.77 32.25 20.66 32.25 21.76C32.25 22.86 31.36 23.76 30.26 23.76ZM36 21L34.32 20.64C33.83 18.85 32.2 17.53 30.26 17.53C28.33 17.53 26.69 18.85 26.2 20.64L25.01 20.64L25.01 6.96L29.9 6.96L36 14L36 21Z" />
</svg>