<svg xmlns="http://www.w3.org/2000/svg" viewBox="0 0 16 12" width="16" height="12">
	<style>
		tspan { white-space:pre }
		.shp0 { fill: #ffffff } 
	</style>
	<path id="Twitter" class="shp0" d="M15.59 0.22C14.99 0.57 14.33 0.82 13.63 0.96C13.07 0.37 12.27 0 11.39 0C9.69 0 8.31 1.36 8.31 3.03C8.31 3.27 8.34 3.5 8.39 3.72C5.83 3.59 3.56 2.39 2.04 0.55C1.78 1 1.63 1.52 1.63 2.08C1.63 3.13 2.17 4.06 3 4.6C2.49 4.58 2.02 4.45 1.6 4.22L1.6 4.26C1.6 5.72 2.66 6.95 4.07 7.23C3.81 7.3 3.54 7.33 3.26 7.33C3.06 7.33 2.87 7.31 2.68 7.28C3.07 8.48 4.21 9.36 5.56 9.38C4.5 10.2 3.18 10.68 1.73 10.68C1.49 10.68 1.24 10.67 1 10.64C2.36 11.5 3.98 12 5.72 12C11.38 12 14.47 7.38 14.47 3.38L14.46 2.99C15.07 2.56 15.59 2.03 16 1.42C15.45 1.66 14.86 1.82 14.23 1.9C14.87 1.52 15.36 0.93 15.59 0.22Z" />
</svg>